<svg width="20" height="20" viewBox="0 0 20 20" fill="none" xmlns="http://www.w3.org/2000/svg">
<path d="M12.0017 12.5017V10.0019H8.002V13.0017H6.00212V9.00193C6.00212 8.73673 6.10747 8.48239 6.295 8.29487C6.48252 8.10735 6.73686 8.002 7.00206 8.002H12.0017V5.50215L15.5015 9.00193M19.7113 9.29191L10.7118 0.292482H10.7018C10.3118 -0.0974938 9.68189 -0.0974938 9.29191 0.292482L0.292482 9.29191C-0.0974939 9.68189 -0.0974939 10.3218 0.292482 10.7118L9.29191 19.7113C9.68189 20.0912 10.3118 20.1012 10.7118 19.7113L19.7113 10.7118C20.1012 10.3218 20.1012 9.68189 19.7113 9.29191Z" fill="#B6A2E1"/>
</svg>
