<svg width="24" height="25" viewBox="0 0 24 25" fill="none" xmlns="http://www.w3.org/2000/svg">
<path d="M12 2.23511C6.5 2.23511 2 6.72511 2 12.2551C2 17.2551 5.66 21.4051 10.44 22.1551V15.1551H7.9V12.2551H10.44V10.0451C10.44 7.53511 11.93 6.15511 14.22 6.15511C15.31 6.15511 16.45 6.34511 16.45 6.34511V8.81511H15.19C13.95 8.81511 13.56 9.58511 13.56 10.3751V12.2551H16.34L15.89 15.1551H13.56V22.1551C15.9164 21.7829 18.0622 20.5806 19.6099 18.7652C21.1576 16.9497 22.0054 14.6408 22 12.2551C22 6.72511 17.5 2.23511 12 2.23511Z" fill="white"/>
</svg>
