<svg width="41" height="126" viewBox="0 0 41 126" fill="none" xmlns="http://www.w3.org/2000/svg">
<circle cx="3.5" cy="122.5" r="3.5" transform="rotate(-90 3.5 122.5)" fill="#B6A2E1" fill-opacity="0.5"/>
<circle cx="3.5" cy="105.5" r="3.5" transform="rotate(-90 3.5 105.5)" fill="#B6A2E1" fill-opacity="0.5"/>
<circle cx="3.5" cy="88.5" r="3.5" transform="rotate(-90 3.5 88.5)" fill="#B6A2E1" fill-opacity="0.5"/>
<circle cx="3.5" cy="71.5" r="3.5" transform="rotate(-90 3.5 71.5)" fill="#B6A2E1" fill-opacity="0.5"/>
<circle cx="3.5" cy="54.5" r="3" transform="rotate(-90 3.5 54.5)" stroke="#B6A2E1" stroke-opacity="0.5"/>
<circle cx="3.5" cy="37.5" r="3" transform="rotate(-90 3.5 37.5)" stroke="#B6A2E1" stroke-opacity="0.5"/>
<circle cx="3.5" cy="20.5" r="3.5" transform="rotate(-90 3.5 20.5)" fill="#B6A2E1" fill-opacity="0.5"/>
<circle cx="3.5" cy="3.5" r="3.5" transform="rotate(-90 3.5 3.5)" fill="#B6A2E1" fill-opacity="0.5"/>
<circle cx="20.5" cy="122.5" r="3.5" transform="rotate(-90 20.5 122.5)" fill="#B6A2E1" fill-opacity="0.5"/>
<circle cx="20.5" cy="105.5" r="3" transform="rotate(-90 20.5 105.5)" stroke="#B6A2E1" stroke-opacity="0.5"/>
<circle cx="20.5" cy="88.5" r="3.5" transform="rotate(-90 20.5 88.5)" fill="#B6A2E1" fill-opacity="0.5"/>
<circle cx="20.5" cy="71.5" r="3.5" transform="rotate(-90 20.5 71.5)" fill="#B6A2E1" fill-opacity="0.5"/>
<circle cx="20.5" cy="54.5" r="3" transform="rotate(-90 20.5 54.5)" stroke="#B6A2E1" stroke-opacity="0.5"/>
<circle cx="20.5" cy="37.5" r="3.5" transform="rotate(-90 20.5 37.5)" fill="#B6A2E1" fill-opacity="0.5"/>
<circle cx="20.5" cy="20.5" r="3" transform="rotate(-90 20.5 20.5)" stroke="#B6A2E1" stroke-opacity="0.5"/>
<circle cx="20.5" cy="3.5" r="3" transform="rotate(-90 20.5 3.5)" stroke="#B6A2E1" stroke-opacity="0.5"/>
<circle cx="37.5" cy="122.5" r="3" transform="rotate(-90 37.5 122.5)" stroke="#B6A2E1" stroke-opacity="0.5"/>
<circle cx="37.5" cy="105.5" r="3" transform="rotate(-90 37.5 105.5)" stroke="#B6A2E1" stroke-opacity="0.5"/>
<circle cx="37.5" cy="88.5" r="3.5" transform="rotate(-90 37.5 88.5)" fill="#B6A2E1" fill-opacity="0.5"/>
<circle cx="37.5" cy="71.5" r="3.5" transform="rotate(-90 37.5 71.5)" fill="#B6A2E1" fill-opacity="0.5"/>
<circle cx="37.5" cy="54.5" r="3.5" transform="rotate(-90 37.5 54.5)" fill="#B6A2E1" fill-opacity="0.5"/>
<circle cx="37.5" cy="37.5" r="3.5" transform="rotate(-90 37.5 37.5)" fill="#B6A2E1" fill-opacity="0.5"/>
<circle cx="37.5" cy="20.5" r="3" transform="rotate(-90 37.5 20.5)" stroke="#B6A2E1" stroke-opacity="0.5"/>
<circle cx="37.5" cy="3.5" r="3.5" transform="rotate(-90 37.5 3.5)" fill="#B6A2E1" fill-opacity="0.5"/>
</svg>
