<svg width="24" height="25" viewBox="0 0 24 25" fill="none" xmlns="http://www.w3.org/2000/svg">
<path d="M7.8 2.19604H16.2C19.4 2.19604 22 4.79605 22 7.99605V16.396C22 17.9343 21.3889 19.4096 20.3012 20.4973C19.2135 21.585 17.7383 22.196 16.2 22.196H7.8C4.6 22.196 2 19.596 2 16.396V7.99605C2 6.45779 2.61107 4.98254 3.69878 3.89483C4.78649 2.80711 6.26174 2.19604 7.8 2.19604ZM7.6 4.19604C6.64522 4.19604 5.72955 4.57533 5.05442 5.25046C4.37928 5.92559 4 6.84127 4 7.79604V16.596C4 18.586 5.61 20.196 7.6 20.196H16.4C17.3548 20.196 18.2705 19.8168 18.9456 19.1416C19.6207 18.4665 20 17.5508 20 16.596V7.79604C20 5.80604 18.39 4.19604 16.4 4.19604H7.6ZM17.25 5.69604C17.5815 5.69604 17.8995 5.82774 18.1339 6.06216C18.3683 6.29658 18.5 6.61452 18.5 6.94604C18.5 7.27757 18.3683 7.59551 18.1339 7.82993C17.8995 8.06435 17.5815 8.19604 17.25 8.19604C16.9185 8.19604 16.6005 8.06435 16.3661 7.82993C16.1317 7.59551 16 7.27757 16 6.94604C16 6.61452 16.1317 6.29658 16.3661 6.06216C16.6005 5.82774 16.9185 5.69604 17.25 5.69604ZM12 7.19604C13.3261 7.19604 14.5979 7.72283 15.5355 8.66051C16.4732 9.59819 17 10.87 17 12.196C17 13.5221 16.4732 14.7939 15.5355 15.7316C14.5979 16.6693 13.3261 17.196 12 17.196C10.6739 17.196 9.40215 16.6693 8.46447 15.7316C7.52678 14.7939 7 13.5221 7 12.196C7 10.87 7.52678 9.59819 8.46447 8.66051C9.40215 7.72283 10.6739 7.19604 12 7.19604ZM12 9.19604C11.2044 9.19604 10.4413 9.51212 9.87868 10.0747C9.31607 10.6373 9 11.4004 9 12.196C9 12.9917 9.31607 13.7548 9.87868 14.3174C10.4413 14.88 11.2044 15.196 12 15.196C12.7956 15.196 13.5587 14.88 14.1213 14.3174C14.6839 13.7548 15 12.9917 15 12.196C15 11.4004 14.6839 10.6373 14.1213 10.0747C13.5587 9.51212 12.7956 9.19604 12 9.19604Z" fill="white"/>
</svg>
