<svg width="18" height="19" viewBox="0 0 18 19" fill="none" xmlns="http://www.w3.org/2000/svg">
<path d="M16 0.196045C16.5304 0.196045 17.0391 0.406759 17.4142 0.781831C17.7893 1.1569 18 1.66561 18 2.19604V16.196C18 16.7265 17.7893 17.2352 17.4142 17.6103C17.0391 17.9853 16.5304 18.196 16 18.196H2C1.46957 18.196 0.960859 17.9853 0.585786 17.6103C0.210714 17.2352 0 16.7265 0 16.196V2.19604C0 1.66561 0.210714 1.1569 0.585786 0.781831C0.960859 0.406759 1.46957 0.196045 2 0.196045H16ZM15.5 15.696V10.396C15.5 9.53144 15.1565 8.70224 14.5452 8.09088C13.9338 7.47951 13.1046 7.13604 12.24 7.13604C11.39 7.13604 10.4 7.65604 9.92 8.43604V7.32605H7.13V15.696H9.92V10.766C9.92 9.99604 10.54 9.36604 11.31 9.36604C11.6813 9.36604 12.0374 9.51354 12.2999 9.7761C12.5625 10.0386 12.71 10.3947 12.71 10.766V15.696H15.5ZM3.88 5.75605C4.32556 5.75605 4.75288 5.57905 5.06794 5.26398C5.383 4.94892 5.56 4.52161 5.56 4.07605C5.56 3.14604 4.81 2.38604 3.88 2.38604C3.43178 2.38604 3.00193 2.5641 2.68499 2.88103C2.36805 3.19797 2.19 3.62783 2.19 4.07605C2.19 5.00604 2.95 5.75605 3.88 5.75605ZM5.27 15.696V7.32605H2.5V15.696H5.27Z" fill="white"/>
</svg>
