<svg xmlns="http://www.w3.org/2000/svg" width="24" height="24" viewBox="0 0 34.666 34.666">
  <path id="account_circle_FILL0_wght600_GRAD0_opsz40" d="M9.5,28.792a22.084,22.084,0,0,1,5.021-2.646A15.812,15.812,0,0,1,20,25.208a15.848,15.848,0,0,1,5.521.959A21.671,21.671,0,0,1,30.5,28.792a14.43,14.43,0,0,0,2.417-4.23A13.723,13.723,0,0,0,33.667,20,13.52,13.52,0,0,0,20,6.333,13.52,13.52,0,0,0,6.333,20a13.723,13.723,0,0,0,.75,4.562A14.43,14.43,0,0,0,9.5,28.792ZM20,21.583a5.835,5.835,0,0,1-5.917-5.916A5.835,5.835,0,0,1,20,9.75a5.835,5.835,0,0,1,5.917,5.917A5.835,5.835,0,0,1,20,21.583Zm0,15.75a16.839,16.839,0,0,1-6.729-1.354,17.515,17.515,0,0,1-9.25-9.25A16.839,16.839,0,0,1,2.667,20a16.617,16.617,0,0,1,1.375-6.729,17.63,17.63,0,0,1,9.229-9.229A16.617,16.617,0,0,1,20,2.667a16.617,16.617,0,0,1,6.729,1.375,17.63,17.63,0,0,1,9.229,9.229A16.617,16.617,0,0,1,37.333,20a16.617,16.617,0,0,1-1.375,6.729,17.63,17.63,0,0,1-9.229,9.229A16.617,16.617,0,0,1,20,37.333Zm0-3.666A13.3,13.3,0,0,0,28.125,31a16.31,16.31,0,0,0-3.958-2.042A12.859,12.859,0,0,0,20,28.292a12.671,12.671,0,0,0-4.146.666A16.45,16.45,0,0,0,11.917,31a13.867,13.867,0,0,0,3.937,2.042A13.685,13.685,0,0,0,20,33.667ZM20,18.5a2.782,2.782,0,0,0,2.021-.792,2.724,2.724,0,0,0,.812-2.041,2.833,2.833,0,1,0-5.666,0,2.724,2.724,0,0,0,.812,2.041A2.782,2.782,0,0,0,20,18.5ZM20,15.667ZM20.042,30.958Z" transform="translate(-2.667 -2.667)" fill="#6c6c6c"/>
</svg>
