<svg width="24" height="25" viewBox="0 0 24 25" fill="none" xmlns="http://www.w3.org/2000/svg">
<path d="M12.0408 2.19604C6.58078 2.19604 2.13078 6.64604 2.13078 12.106C2.13078 13.856 2.59078 15.556 3.45078 17.056L2.05078 22.196L7.30078 20.816C8.75078 21.606 10.3808 22.026 12.0408 22.026C17.5008 22.026 21.9508 17.576 21.9508 12.116C21.9508 9.46604 20.9208 6.97604 19.0508 5.10604C17.1808 3.22604 14.6908 2.19604 12.0408 2.19604ZM12.0508 3.86604C14.2508 3.86604 16.3108 4.72605 17.8708 6.28605C19.4208 7.84605 20.2808 9.91605 20.2808 12.116C20.2808 16.656 16.5808 20.346 12.0408 20.346C10.5608 20.346 9.11078 19.956 7.85078 19.196L7.55078 19.026L4.43078 19.846L5.26078 16.806L5.06078 16.486C4.24078 15.196 3.80078 13.666 3.80078 12.106C3.81078 7.56604 7.50078 3.86604 12.0508 3.86604ZM8.53078 7.52604C8.37078 7.52604 8.10078 7.58604 7.87078 7.83604C7.65078 8.08604 7.00078 8.69604 7.00078 9.90604C7.00078 11.126 7.89078 12.296 8.00078 12.466C8.14078 12.636 9.76078 15.136 12.2508 16.196C12.8408 16.466 13.3008 16.616 13.6608 16.726C14.2508 16.916 14.7908 16.886 15.2208 16.826C15.7008 16.756 16.6808 16.226 16.8908 15.646C17.1008 15.066 17.1008 14.576 17.0408 14.466C16.9708 14.366 16.8108 14.306 16.5608 14.196C16.3108 14.056 15.0908 13.456 14.8708 13.376C14.6408 13.296 14.5008 13.256 14.3108 13.496C14.1508 13.746 13.6708 14.306 13.5308 14.466C13.3808 14.636 13.2408 14.656 13.0008 14.536C12.7408 14.406 11.9408 14.146 11.0008 13.306C10.2608 12.646 9.77078 11.836 9.62078 11.586C9.50078 11.346 9.61078 11.196 9.73078 11.086C9.84078 10.976 10.0008 10.796 10.1008 10.646C10.2308 10.506 10.2708 10.396 10.3508 10.236C10.4308 10.066 10.3908 9.92604 10.3308 9.80604C10.2708 9.69604 9.77078 8.45605 9.56078 7.96604C9.36078 7.48604 9.16078 7.54605 9.00078 7.53605C8.86078 7.53605 8.70078 7.52604 8.53078 7.52604Z" fill="white"/>
</svg>
